<svg id="Ebene_1" data-name="Ebene 1" xmlns="http://www.w3.org/2000/svg" viewBox="0 0 1606 265"><defs><style>.cls-1{fill:#dfdfdf;}.cls-2{fill:none;stroke:#494949;stroke-linecap:round;stroke-miterlimit:10;stroke-width:9px;}.cls-3{fill:#494949;}</style></defs><title>Reset-NVRAM</title><rect class="cls-1" x="1341" width="265" height="265" rx="28.09" ry="28.09"/><line class="cls-2" x1="1270" y1="94" x2="1270" y2="170"/><line class="cls-2" x1="1232" y1="132" x2="1308" y2="132"/><path class="cls-3" d="M1502.06,191.31,1473.35,141h-21.44v50.33h-15.26V72.11h37.43c24.17,0,41.61,8.72,41.61,33.43,0,18.53-10.54,29.62-26.71,33.8l30.34,52Zm-50.15-62.69h20c18.53,0,28.71-7.63,28.71-23.08,0-15.63-10.17-21.26-28.71-21.26h-20Z"/><rect class="cls-1" x="934" width="265" height="265" rx="28.09" ry="28.09"/><line class="cls-2" x1="863" y1="94" x2="863" y2="170"/><line class="cls-2" x1="825" y1="132" x2="901" y2="132"/><path class="cls-3" d="M1030.1,72.11h36.7c26.35,0,44,8.9,44,35.07,0,25.07-18,36.89-44,36.89h-21.44v47.24H1030.1Zm34.71,59.6c20.9,0,30.89-7.63,30.89-24.53,0-17.26-10.36-22.89-30.89-22.89h-19.44v47.42Z"/><rect class="cls-1" x="423" width="369" height="265" rx="28.09" ry="28.09"/><line class="cls-2" x1="352.5" y1="94.5" x2="352.5" y2="170.5"/><line class="cls-2" x1="314.5" y1="132.5" x2="390.5" y2="132.5"/><g id="_command" data-name=" command"><path class="cls-3" d="M482.28,206.6a10,10,0,0,1,7.1,2.9l-2.05,2.65a7.35,7.35,0,0,0-4.9-2.15c-4.4,0-7.6,3.8-7.6,9.4s3,9.3,7.5,9.3a8.67,8.67,0,0,0,5.7-2.45l1.85,2.7a12,12,0,0,1-7.9,3.15c-6.45,0-11.4-4.65-11.4-12.7S476,206.6,482.28,206.6Z"/><path class="cls-3" d="M503.58,206.6c6,0,11.25,4.65,11.25,12.8s-5.3,12.7-11.25,12.7-11.25-4.65-11.25-12.7S497.63,206.6,503.58,206.6Zm0,22.1c4.2,0,7-3.75,7-9.3s-2.8-9.4-7-9.4-7,3.8-7,9.4S499.43,228.7,503.58,228.7Z"/><path class="cls-3" d="M521.23,207.2h3.4l.35,3.5h.15c2.1-2.3,4.65-4.1,7.55-4.1,3.7,0,5.7,1.75,6.7,4.65,2.55-2.75,5.05-4.65,8-4.65,5,0,7.4,3.3,7.4,9.5v15.4h-4.1V216.65c0-4.55-1.45-6.5-4.5-6.5-1.9,0-3.85,1.25-6.1,3.75v17.6H536V216.65c0-4.55-1.45-6.5-4.55-6.5-1.8,0-3.85,1.25-6.1,3.75v17.6h-4.1Z"/><path class="cls-3" d="M562.68,207.2h3.4l.35,3.5h.15c2.1-2.3,4.65-4.1,7.55-4.1,3.7,0,5.7,1.75,6.7,4.65,2.55-2.75,5.05-4.65,8-4.65,5,0,7.4,3.3,7.4,9.5v15.4h-4.1V216.65c0-4.55-1.45-6.5-4.5-6.5-1.9,0-3.85,1.25-6.1,3.75v17.6h-4.1V216.65c0-4.55-1.45-6.5-4.55-6.5-1.8,0-3.85,1.25-6.1,3.75v17.6h-4.1Z"/><path class="cls-3" d="M617.88,216.1c0-3.1-1.05-6.1-5-6.1a13.07,13.07,0,0,0-7.25,2.6L604,209.75a18,18,0,0,1,9.55-3.15c6,0,8.45,4,8.45,10v14.9h-3.4l-.35-2.9h-.1c-2.35,1.9-5.05,3.5-8.05,3.5-4.1,0-7.15-2.55-7.15-6.9C602.93,219.9,607.53,217.25,617.88,216.1Zm-6.65,12.7c2.35,0,4.3-1.15,6.65-3.25V218.8c-8.15,1-10.9,3-10.9,6.1C607,227.65,608.83,228.8,611.23,228.8Z"/><path class="cls-3" d="M629.73,207.2h3.4l.35,3.5h.15c2.3-2.3,4.8-4.1,8.15-4.1,5.1,0,7.4,3.3,7.4,9.5v15.4h-4.1V216.65c0-4.55-1.4-6.5-4.6-6.5-2.5,0-4.2,1.3-6.65,3.75v17.6h-4.1Z"/><path class="cls-3" d="M665.88,206.6c2.8,0,4.65,1,6.8,2.8l-.2-4.15V195.9h4.15v35.6h-3.4l-.35-2.85h-.15a11,11,0,0,1-7.35,3.45c-6.1,0-10-4.6-10-12.7C655.33,211.5,660.33,206.6,665.88,206.6Zm.4,22.05c2.25,0,4.2-1.1,6.2-3.35V212.6a8.46,8.46,0,0,0-5.9-2.55c-3.9,0-7,3.75-7,9.3C659.58,225.15,662,228.65,666.28,228.65Z"/></g><path class="cls-3" d="M734.66,213.72h5.61a9.11,9.11,0,1,1-9.14,9.14v-5.64H719.88v5.64a9.14,9.14,0,1,1-9.14-9.14h5.64V202.47h-5.64a9.13,9.13,0,1,1,9.14-9.14v5.61h11.25v-5.61a9.14,9.14,0,1,1,9.14,9.14h-5.61Zm-18.28-14.78v-5.61a5.64,5.64,0,1,0-11.28,0,5.37,5.37,0,0,0,1.66,4,5.45,5.45,0,0,0,4,1.64Zm0,23.92v-5.64h-5.64a5.61,5.61,0,1,0,5.64,5.64Zm14.75-9.14V202.47H719.88v11.25Zm3.53-14.78h5.61a5.46,5.46,0,0,0,4-1.64,5.37,5.37,0,0,0,1.66-4,5.61,5.61,0,0,0-5.64-5.64,5.36,5.36,0,0,0-4,1.66,5.45,5.45,0,0,0-1.64,4Zm0,18.28v5.64a5.44,5.44,0,0,0,1.66,4,5.52,5.52,0,0,0,7.93,0,5.64,5.64,0,0,0-4-9.6Z"/><rect class="cls-1" width="282" height="265" rx="28.09" ry="28.09"/><g id="_command-2" data-name=" command"><path class="cls-3" d="M52.3,206.6c6,0,11.25,4.65,11.25,12.8s-5.3,12.7-11.25,12.7-11.25-4.65-11.25-12.7S46.35,206.6,52.3,206.6Zm0,22.1c4.2,0,7-3.75,7-9.3s-2.8-9.4-7-9.4-7,3.8-7,9.4S48.15,228.7,52.3,228.7Z"/><path class="cls-3" d="M74.05,233.55v8.2H70V207.2h3.4l.35,2.8h.15c2.2-1.85,4.9-3.4,7.75-3.4,6.25,0,9.6,4.85,9.6,12.4,0,8.25-5,13.1-10.5,13.1A11.27,11.27,0,0,1,74,229.3Zm6-4.9c4,0,7-3.65,7-9.65,0-5.35-1.8-9-6.4-9-2.05,0-4.1,1.15-6.5,3.3V226.1A9.62,9.62,0,0,0,80,228.65Z"/><path class="cls-3" d="M98.4,210.55H94.8v-3.1l3.8-.25.5-6.8h3.45v6.8h6.55v3.35h-6.55V224c0,3,1,4.7,3.75,4.7a8.81,8.81,0,0,0,2.75-.65l.8,3.1a15,15,0,0,1-4.5.9c-5.2,0-7-3.3-7-8.1Z"/><path class="cls-3" d="M113.85,199.55a2.86,2.86,0,0,1,5.7,0,2.86,2.86,0,0,1-5.7,0Zm.75,7.65h4.1v24.3h-4.1Z"/><path class="cls-3" d="M136.35,206.6c6,0,11.25,4.65,11.25,12.8s-5.3,12.7-11.25,12.7-11.25-4.65-11.25-12.7S130.4,206.6,136.35,206.6Zm0,22.1c4.2,0,7-3.75,7-9.3s-2.8-9.4-7-9.4-7,3.8-7,9.4S132.2,228.7,136.35,228.7Z"/><path class="cls-3" d="M154,207.2h3.4l.35,3.5h.15c2.3-2.3,4.8-4.1,8.15-4.1,5.1,0,7.4,3.3,7.4,9.5v15.4h-4.1V216.65c0-4.55-1.4-6.5-4.6-6.5-2.5,0-4.2,1.3-6.65,3.75v17.6H154Z"/></g><g id="_command-3" data-name=" command"><path class="cls-3" d="M49.23,40.48c0-1.56-.69-2.88-2.67-2.88A8.19,8.19,0,0,0,42.42,39l-1.26-2.31a11.41,11.41,0,0,1,6-1.92c3.69,0,5.49,2.25,5.49,6.36V49.9H49.86l-.27-1.62H49.5a7.17,7.17,0,0,1-4.56,2,4.14,4.14,0,0,1-4.38-4.32C40.56,42.79,43.2,41.14,49.23,40.48ZM46,47.56a4.63,4.63,0,0,0,3.21-1.62v-3.3c-4,.51-5.31,1.56-5.31,3S44.79,47.56,46,47.56Z"/><path class="cls-3" d="M56.88,28.72h3.45V46.3c0,.84.39,1.14.75,1.14a2.06,2.06,0,0,0,.54-.06L62.07,50a4.72,4.72,0,0,1-1.83.3c-2.46,0-3.36-1.59-3.36-4.14Z"/><path class="cls-3" d="M65.52,37.9h-2.1V35.32l2.28-.15.42-4H69v4h3.75V37.9H69v7c0,1.74.66,2.58,2.07,2.58a4.22,4.22,0,0,0,1.53-.33l.6,2.55a9.41,9.41,0,0,1-3,.54c-3.42,0-4.68-2.16-4.68-5.34Z"/></g></svg>